#Comment line ignore any data following # character 
#Hierarchical Translation and Rotation (.htr) file 
[Header]	
#Header keywords are followed by a single value 
FileType HTR		#Single word string
DataType HTRS		#Translation followed by rotation and scale data
FileVersion 1		#integer
NumSegments 64		#integer
NumFrames 3		#integer
DataFrameRate 30		#integer, data frame rate in this file
EulerRotationOrder ZYX
CalibrationUnits mm
RotationUnits Degrees
GlobalAxisofGravity Y
BoneLengthAxis Y
ScaleFactor 1.00
[SegmentNames&Hierarchy]
#CHILD	PARENT
Pinger_Root GLOBAL
Pelvis Pinger_Root
L_Hip Pelvis
R_Hip Pelvis
Rear_Leg01 Pelvis
Spine1 Pelvis
L_Leg01 L_Hip
L_Leg02 L_Leg01
L_Leg03 L_Leg02
L_Foot L_Leg03
L_Toe1_01 L_Foot
L_Toe2_01 L_Foot
L_Toe3_01 L_Foot
planeAlignerLeft L_Foot
L_Toe1_02 L_Toe1_01
L_Toe1_03 L_Toe1_02
L_Toe2_02 L_Toe2_01
L_Toe2_03 L_Toe2_02
L_Toe3_02 L_Toe3_01
L_Toe3_03 L_Toe3_02
planeLockWeightLeft planeAlignerLeft
R_Leg01 R_Hip
R_Leg02 R_Leg01
R_Leg03 R_Leg02
R_Foot R_Leg03
planeAlignerRight R_Foot
R_Toe1_01 R_Foot
R_Toe2_01 R_Foot
R_Toe3_01 R_Foot
planeLockWeightRight planeAlignerRight
R_Toe1_02 R_Toe1_01
R_Toe1_03 R_Toe1_02
R_Toe2_02 R_Toe2_01
R_Toe2_03 R_Toe2_02
R_Toe3_02 R_Toe3_01
R_Toe3_03 R_Toe3_02
Rear_Leg02 Rear_Leg01
Rear_Leg03 Rear_Leg02
Rear_Leg04 Rear_Leg03
Rear_Foot Rear_Leg04
planeAlignerCenter Rear_Foot
Rear_Toe1_01 Rear_Foot
Rear_Toe2_01 Rear_Foot
Rear_Toe3_01 Rear_Foot
planeLockWeightCenter planeAlignerCenter
Rear_Toe1_02 Rear_Toe1_01
Rear_Toe1_03 Rear_Toe1_02
Rear_Toe2_02 Rear_Toe2_01
Rear_Toe2_03 Rear_Toe2_02
Rear_Toe3_02 Rear_Toe3_01
Rear_Toe3_03 Rear_Toe3_02
Back_Bone Spine1
Head Spine1
Motor_Bone Back_Bone
Ping_Mechanism Back_Bone
BN_LookIK Head
bottomMouth Head
L_Mouth01 Head
L_mouthFront Head
mouthGun Head
R_Mouth01 Head
R_mouthFront Head
TopMouth Head
weapon_bone Head
[BasePosition]
#SegmentName Tx, Ty, Tz, Rx, Ry, Rz, BoneLength
Pinger_Root 0.000000 0.000000 0.000000 -90.000000 0.000000 0.000000 10.000000 
Pelvis 0.000000 0.000000 0.000000 0.000000 0.000000 0.000000 10.000000 
L_Hip 0.000000 0.000000 0.000000 0.000000 0.000000 0.000000 10.000000 
R_Hip 0.000000 0.000000 0.000000 0.000000 0.000000 0.000000 10.000000 
Rear_Leg01 0.000000 0.000000 0.000000 0.000000 0.000000 0.000000 10.000000 
Spine1 0.000000 0.000000 0.000000 0.000000 0.000000 0.000000 10.000000 
L_Leg01 0.000000 0.000000 0.000000 0.000000 0.000000 0.000000 10.000000 
L_Leg02 0.000000 0.000000 0.000000 0.000000 0.000000 0.000000 10.000000 
L_Leg03 0.000000 0.000000 0.000000 0.000000 0.000000 0.000000 10.000000 
L_Foot 0.000000 0.000000 0.000000 0.000000 0.000000 0.000000 10.000000 
L_Toe1_01 0.000000 0.000000 0.000000 0.000000 0.000000 0.000000 10.000000 
L_Toe2_01 0.000000 0.000000 0.000000 0.000000 0.000000 0.000000 10.000000 
L_Toe3_01 0.000000 0.000000 0.000000 0.000000 0.000000 0.000000 10.000000 
planeAlignerLeft 0.000000 0.000000 0.000000 0.000000 0.000000 0.000000 10.000000 
L_Toe1_02 0.000000 0.000000 0.000000 0.000000 0.000000 0.000000 10.000000 
L_Toe1_03 0.000000 0.000000 0.000000 0.000000 0.000000 0.000000 10.000000 
L_Toe2_02 0.000000 0.000000 0.000000 0.000000 0.000000 0.000000 10.000000 
L_Toe2_03 0.000000 0.000000 0.000000 0.000000 0.000000 0.000000 10.000000 
L_Toe3_02 0.000000 0.000000 0.000000 0.000000 0.000000 0.000000 10.000000 
L_Toe3_03 0.000000 0.000000 0.000000 0.000000 0.000000 0.000000 10.000000 
planeLockWeightLeft 0.000000 0.000000 0.000000 0.000000 0.000000 0.000000 10.000000 
R_Leg01 0.000000 0.000000 0.000000 0.000000 0.000000 0.000000 10.000000 
R_Leg02 0.000000 0.000000 0.000000 0.000000 0.000000 0.000000 10.000000 
R_Leg03 0.000000 0.000000 0.000000 0.000000 0.000000 0.000000 10.000000 
R_Foot 0.000000 0.000000 0.000000 0.000000 0.000000 0.000000 10.000000 
planeAlignerRight 0.000000 0.000000 0.000000 0.000000 0.000000 0.000000 10.000000 
R_Toe1_01 0.000000 0.000000 0.000000 0.000000 0.000000 0.000000 10.000000 
R_Toe2_01 0.000000 0.000000 0.000000 0.000000 0.000000 0.000000 10.000000 
R_Toe3_01 0.000000 0.000000 0.000000 0.000000 0.000000 0.000000 10.000000 
planeLockWeightRight 0.000000 0.000000 0.000000 0.000000 0.000000 0.000000 10.000000 
R_Toe1_02 0.000000 0.000000 0.000000 0.000000 0.000000 0.000000 10.000000 
R_Toe1_03 0.000000 0.000000 0.000000 0.000000 0.000000 0.000000 10.000000 
R_Toe2_02 0.000000 0.000000 0.000000 0.000000 0.000000 0.000000 10.000000 
R_Toe2_03 0.000000 0.000000 0.000000 0.000000 0.000000 0.000000 10.000000 
R_Toe3_02 0.000000 0.000000 0.000000 0.000000 0.000000 0.000000 10.000000 
R_Toe3_03 0.000000 0.000000 0.000000 0.000000 0.000000 0.000000 10.000000 
Rear_Leg02 0.000000 0.000000 0.000000 0.000000 0.000000 0.000000 10.000000 
Rear_Leg03 0.000000 0.000000 0.000000 0.000000 0.000000 0.000000 10.000000 
Rear_Leg04 0.000000 0.000000 0.000000 0.000000 0.000000 0.000000 10.000000 
Rear_Foot 0.000000 0.000000 0.000000 0.000000 0.000000 0.000000 10.000000 
planeAlignerCenter 0.000000 0.000000 0.000000 0.000000 0.000000 0.000000 10.000000 
Rear_Toe1_01 0.000000 0.000000 0.000000 0.000000 0.000000 0.000000 10.000000 
Rear_Toe2_01 0.000000 0.000000 0.000000 0.000000 0.000000 0.000000 10.000000 
Rear_Toe3_01 0.000000 0.000000 0.000000 0.000000 0.000000 0.000000 10.000000 
planeLockWeightCenter 0.000000 0.000000 0.000000 0.000000 0.000000 0.000000 10.000000 
Rear_Toe1_02 0.000000 0.000000 0.000000 0.000000 0.000000 0.000000 10.000000 
Rear_Toe1_03 0.000000 0.000000 0.000000 0.000000 0.000000 0.000000 10.000000 
Rear_Toe2_02 0.000000 0.000000 0.000000 0.000000 0.000000 0.000000 10.000000 
Rear_Toe2_03 0.000000 0.000000 0.000000 0.000000 0.000000 0.000000 10.000000 
Rear_Toe3_02 0.000000 0.000000 0.000000 0.000000 0.000000 0.000000 10.000000 
Rear_Toe3_03 0.000000 0.000000 0.000000 0.000000 0.000000 0.000000 10.000000 
Back_Bone 0.000000 0.000000 0.000000 0.000000 0.000000 0.000000 10.000000 
Head 0.000000 0.000000 0.000000 0.000000 0.000000 0.000000 10.000000 
Motor_Bone 0.000000 0.000000 0.000000 0.000000 0.000000 0.000000 10.000000 
Ping_Mechanism 0.000000 0.000000 0.000000 0.000000 0.000000 0.000000 10.000000 
BN_LookIK 0.000000 0.000000 0.000000 0.000000 0.000000 0.000000 10.000000 
bottomMouth 0.000000 0.000000 0.000000 0.000000 0.000000 0.000000 10.000000 
L_Mouth01 0.000000 0.000000 0.000000 0.000000 0.000000 0.000000 10.000000 
L_mouthFront 0.000000 0.000000 0.000000 0.000000 0.000000 0.000000 10.000000 
mouthGun 0.000000 0.000000 0.000000 0.000000 0.000000 0.000000 10.000000 
R_Mouth01 0.000000 0.000000 0.000000 0.000000 0.000000 0.000000 10.000000 
R_mouthFront 0.000000 0.000000 0.000000 0.000000 0.000000 0.000000 10.000000 
TopMouth 0.000000 0.000000 0.000000 0.000000 0.000000 0.000000 10.000000 
weapon_bone 0.000000 0.000000 0.000000 0.000000 0.000000 0.000000 10.000000 
#Beginning of Data. Separated by tabs
#Fr	Tx	Ty	Tz	Rx	Ry	Rz	SF
[Pinger_Root]
97 0.000000 0.000000 0.000000 -0.000075 -0.000000 -0.000020 0.000000
98 0.000000 0.000000 0.000000 -0.000075 -0.000000 -0.000020 0.000000
99 0.000000 0.000000 0.000000 -0.000075 -0.000000 -0.000020 0.000000
[Pelvis]
97 654.098145 2531.138672 4553.760254 -43.462105 -82.457489 50.755680 5250.832031
98 668.166870 2608.211182 4510.999023 -48.401794 -81.518211 55.838779 5253.411133
99 680.881775 2689.172852 4463.793457 -52.319824 -80.527092 59.900372 5255.540039
[L_Hip]
97 5.766392 125.831482 872.656799 -178.253311 -81.787758 87.381340 881.701050
98 5.766392 125.831482 872.656799 -178.253311 -81.787758 87.381340 881.701050
99 5.766392 125.831482 872.656799 -178.253342 -81.787758 87.381340 881.701050
[R_Hip]
97 5.765438 125.836372 -872.654907 -1.727175 81.783890 87.370811 881.699829
98 5.765438 125.836372 -872.654907 -1.726938 81.783836 87.370712 881.699829
99 5.765438 125.836372 -872.654907 -1.726750 81.783791 87.370522 881.699829
[Rear_Leg01]
97 -192.298416 -925.602966 -0.001907 146.472855 14.070211 -141.559586 945.367432
98 -192.298416 -925.602966 -0.001907 146.021255 14.021914 -142.200592 945.367432
99 -192.298416 -925.602966 -0.001907 145.795273 13.750239 -142.824844 945.367432
[Spine1]
97 290.604584 5.007505 0.000477 4.696959 -3.396651 13.216907 290.647736
98 290.604584 5.007505 0.000477 4.754391 -3.397964 12.838081 290.647736
99 290.604584 5.007505 0.000477 4.469967 -3.355658 12.542878 290.647736
[L_Leg01]
97 761.932007 -0.002384 -0.069261 124.867569 -18.374260 -98.815369 761.932068
98 761.932007 -0.002384 -0.069261 124.898987 -19.121778 -98.846550 761.932068
99 761.932007 -0.002384 -0.069261 125.227776 -19.989735 -99.084473 761.932068
[L_Leg02]
97 1441.140503 -0.000954 -0.000715 0.307168 -0.043254 -117.225647 1441.140503
98 1441.140503 -0.000954 -0.000715 0.520341 -0.081401 -118.924713 1441.140503
99 1441.140503 -0.000954 -0.000715 0.734409 -0.113192 -120.622780 1441.140503
[L_Leg03]
97 1686.963989 -0.000715 -0.000954 0.000016 -0.000003 109.902481 1686.963989
98 1686.963989 -0.000715 -0.000954 -0.002279 0.000408 110.280930 1686.963989
99 1686.963989 -0.000715 -0.000954 -0.004571 0.000833 110.659378 1686.963989
[L_Foot]
97 3041.570068 -30.715107 11.297464 12.121087 14.657761 94.146423 3041.746094
98 3041.570068 -30.715107 11.297464 12.586913 14.438820 95.910088 3041.746094
99 3041.570068 -30.715107 11.297464 13.045204 14.206068 97.670486 3041.746094
[L_Toe1_01]
97 -188.216690 -224.732346 -21.137953 103.321060 -3.348666 -177.820145 293.899567
98 -188.216690 -224.732346 -21.137953 103.321159 -3.277075 -177.927246 293.899567
99 -188.216690 -224.732346 -21.137953 103.321121 -3.205484 -178.034317 293.899567
[L_Toe2_01]
97 200.746536 -219.926590 148.838394 -87.370140 -20.637579 -52.649502 332.896027
98 200.746536 -219.926590 148.838394 -87.456413 -20.523369 -52.522778 332.896027
99 200.746536 -219.926590 148.838394 -87.542374 -20.408985 -52.396347 332.896027
[L_Toe3_01]
97 188.832520 -219.859131 -191.078659 -116.167847 7.590465 -67.452202 347.140900
98 188.832520 -219.859131 -191.078659 -116.167084 7.567491 -67.436470 347.140900
99 188.832520 -219.859131 -191.078659 -116.166328 7.544516 -67.420753 347.140900
[planeAlignerLeft]
97 0.812531 -811.448792 -0.314951 0.000000 -90.000000 -90.001900 811.449280
98 0.812531 -811.448792 -0.314951 0.000000 -90.000000 -90.001900 811.449280
99 0.812531 -811.448792 -0.314951 0.000000 -90.000000 -90.001900 811.449280
[L_Toe1_02]
97 413.761139 0.000477 0.000000 0.001410 -22.666319 0.001410 413.761139
98 413.761139 0.000477 0.000000 0.001411 -22.572721 0.001411 413.761139
99 413.761139 0.000477 0.000000 0.001412 -22.430391 0.001412 413.761139
[L_Toe1_03]
97 464.317322 0.000358 -0.000089 0.013298 79.873482 0.013298 464.317322
98 464.317322 0.000358 -0.000089 0.014194 80.513451 0.014194 464.317322
99 464.317322 0.000358 -0.000089 0.015218 81.153397 0.015218 464.317322
[L_Toe2_02]
97 342.235809 -0.000477 0.000238 -0.002411 -58.976391 -0.002411 342.235809
98 342.235809 -0.000477 0.000238 -0.002414 -58.416710 -0.002414 342.235809
99 342.235809 -0.000477 0.000238 -0.002419 -57.648087 -0.002419 342.235809
[L_Toe2_03]
97 420.210846 -0.000715 0.000000 -0.000373 59.498898 -0.003997 420.210846
98 420.210846 -0.000715 0.000000 -0.000312 58.658657 -0.003944 420.210846
99 420.210846 -0.000715 0.000000 -0.000238 57.579723 -0.003880 420.210846
[L_Toe3_02]
97 329.270111 0.000954 0.000000 -0.001977 -71.529716 0.003470 329.270111
98 329.270111 0.000954 0.000000 -0.005022 -71.104195 0.005629 329.270111
99 329.270111 0.000954 0.000000 -0.007954 -70.678665 0.007674 329.270111
[L_Toe3_03]
97 439.137451 -0.001907 0.000954 0.010203 76.789497 0.010203 439.137451
98 439.137451 -0.001907 0.000954 0.005384 75.849953 0.004210 439.137451
99 439.137451 -0.001907 0.000954 0.001237 74.910316 -0.001115 439.137451
[planeLockWeightLeft]
97 -0.000954 0.000238 -0.000305 -0.011826 -0.004376 0.005620 0.001029
98 -0.000954 0.000238 -0.000305 -0.011826 -0.004376 0.005620 0.001029
99 -0.000954 0.000238 -0.000305 -0.011826 -0.004376 0.005620 0.001029
[R_Leg01]
97 761.455627 -0.001907 -0.000358 101.023026 9.372368 73.277374 761.455688
98 761.455627 -0.001907 -0.000358 101.651558 10.596979 73.542709 761.455688
99 761.455627 -0.001907 -0.000358 102.288528 11.818630 73.822853 761.455688
[R_Leg02]
97 1441.140625 0.000000 -0.000238 0.918602 -0.549839 -95.818398 1441.140625
98 1441.140625 0.000000 -0.000238 0.993351 -0.580642 -94.899567 1441.140625
99 1441.140625 0.000000 -0.000238 1.067592 -0.612636 -93.980827 1441.140625
[R_Leg03]
97 1686.963989 0.000954 0.001431 -0.098301 0.013641 83.441208 1686.963989
98 1686.963989 0.000954 0.001431 -0.095119 0.014057 84.258179 1686.963989
99 1686.963989 0.000954 0.001431 -0.091932 0.014428 85.075073 1686.963989
[R_Foot]
97 3041.560059 -30.531288 -11.204481 37.829243 -66.665070 77.733658 3041.734131
98 3041.560059 -30.531288 -11.204481 37.596184 -66.611732 78.410637 3041.734131
99 3041.560059 -30.531288 -11.204481 37.745293 -66.533669 78.922974 3041.734131
[planeAlignerRight]
97 -0.635147 -812.270569 -0.364304 0.000000 -89.960434 -90.005180 812.270874
98 -0.635147 -812.270569 -0.364304 0.000000 -89.960434 -90.005180 812.270874
99 -0.635147 -812.270569 -0.364304 0.000000 -89.960434 -90.005180 812.270874
[R_Toe1_01]
97 -188.383347 -224.864899 21.052242 90.252724 4.624031 -159.762329 294.101532
98 -188.383347 -224.864899 21.052242 90.353104 4.260016 -159.135941 294.101532
99 -188.383347 -224.864899 21.052242 90.481781 3.773894 -158.254196 294.101532
[R_Toe2_01]
97 200.637817 -220.002121 -148.787384 -104.095703 13.479220 -51.220707 332.857574
98 200.637817 -220.002121 -148.787384 -104.081596 13.086930 -51.610291 332.857574
99 200.637817 -220.002121 -148.787384 -104.064758 12.694736 -51.999355 332.857574
[R_Toe3_01]
97 188.606735 -220.092957 191.126343 -73.734505 -10.902756 -51.538914 347.192566
98 188.606735 -220.092957 191.126343 -73.453751 -11.248263 -52.152031 347.192566
99 188.606735 -220.092957 191.126343 -73.168869 -11.590789 -52.767605 347.192566
[planeLockWeightRight]
97 -0.000477 0.000000 0.000000 -0.011823 -0.004379 -0.000027 0.000477
98 -0.000477 0.000000 0.000000 -0.011823 -0.004379 -0.000027 0.000477
99 -0.000477 0.000000 0.000000 -0.011823 -0.004379 -0.000027 0.000477
[R_Toe1_02]
97 413.762085 0.000477 -0.000119 0.001408 -22.959614 0.001408 413.762085
98 413.762085 0.000477 -0.000119 0.001406 -23.200220 0.001406 413.762085
99 413.762085 0.000477 -0.000119 0.001404 -23.440832 0.001404 413.762085
[R_Toe1_03]
97 464.317810 0.000000 0.001088 0.012319 79.066650 0.012319 464.317810
98 464.317810 0.000000 0.001088 0.011139 77.904442 0.011139 464.317810
99 464.317810 0.000000 0.001088 0.009902 76.386169 0.009902 464.317810
[R_Toe2_02]
97 342.234741 -0.000954 0.000238 0.000793 -73.395950 0.000793 342.234741
98 342.234741 -0.000954 0.000238 0.000401 -73.554184 0.000401 342.234741
99 342.234741 -0.000954 0.000238 0.000008 -73.712418 0.000008 342.234741
[R_Toe2_03]
97 420.210846 0.000715 -0.000268 -0.034650 88.190300 -0.038147 420.210846
98 420.210846 0.000715 -0.000268 -0.044396 88.572479 -0.047893 420.210846
99 420.210846 0.000715 -0.000268 -0.073342 89.122406 -0.076839 420.210846
[R_Toe3_02]
97 329.270355 -0.000477 -0.000954 0.001179 -78.967560 0.001179 329.270355
98 329.270355 -0.000477 -0.000954 0.001179 -78.925240 0.001179 329.270355
99 329.270355 -0.000477 -0.000954 0.001179 -78.882912 0.001179 329.270355
[R_Toe3_03]
97 439.137939 0.000238 0.001431 -179.990997 83.871193 -179.987488 439.137939
98 439.137939 0.000238 0.001431 -179.990601 84.097443 -179.987091 439.137939
99 439.137939 0.000238 0.001431 -179.990143 84.323593 -179.986649 439.137939
[Rear_Leg02]
97 1162.777710 -0.029802 0.005960 -16.426807 9.196968 -79.416481 1162.777710
98 1162.777710 -0.029802 0.005960 -16.233295 9.673908 -77.717804 1162.777710
99 1162.777710 -0.029802 0.005960 -16.025223 10.144974 -76.015030 1162.777710
[Rear_Leg03]
97 607.192505 -0.013351 -0.073195 0.006548 -0.001872 60.122681 607.192505
98 607.192505 -0.013351 -0.073195 0.006560 -0.001830 59.390656 607.192505
99 607.192505 -0.013351 -0.073195 0.006571 -0.001788 58.658649 607.192505
[Rear_Leg04]
97 995.874512 -0.020504 -0.011921 -0.039392 -0.017888 50.427956 995.874573
98 995.874512 -0.020504 -0.011921 -0.039193 -0.018315 49.178829 995.874573
99 995.874512 -0.020504 -0.011921 -0.038286 -0.017330 47.653229 995.874573
[Rear_Foot]
97 3096.176270 -0.067472 -0.041425 163.175659 61.723145 -4.079576 3096.176270
98 3096.176270 -0.067472 -0.041425 163.691360 61.017918 -2.658764 3096.176270
99 3096.176270 -0.067472 -0.041425 164.160477 60.306671 -1.281404 3096.176270
[planeAlignerCenter]
97 0.350077 0.966311 -838.790894 0.000009 0.000003 -179.999985 838.791565
98 0.350077 0.966311 -838.790894 0.000009 0.000003 -179.999985 838.791565
99 0.350077 0.966311 -838.790894 0.000009 0.000003 -179.999985 838.791565
[Rear_Toe1_01]
97 0.653352 83.966492 -371.173737 -0.452261 31.029301 88.800095 380.553192
98 0.653352 83.966492 -371.173737 -0.539339 30.924652 88.579323 380.553192
99 0.653352 83.966492 -371.173737 -0.620091 30.621399 88.366402 380.553192
[Rear_Toe2_01]
97 178.200760 -294.826019 -362.060547 4.109726 53.906441 -65.008301 499.765686
98 178.200760 -294.826019 -362.060547 4.428611 53.553291 -64.445953 499.765686
99 178.200760 -294.826019 -362.060547 4.739043 53.198284 -63.891552 499.765686
[Rear_Toe3_01]
97 -153.359680 -308.780914 -362.060852 -2.008022 54.025368 -113.512230 499.952881
98 -153.359680 -308.780914 -362.060852 -1.888511 53.687481 -113.299400 499.952881
99 -153.359680 -308.780914 -362.060852 -1.772046 53.349304 -113.089417 499.952881
[planeLockWeightCenter]
97 -0.000062 0.000238 0.000000 -0.011814 -0.004373 -0.000015 0.000246
98 -0.000062 0.000238 0.000000 -0.011814 -0.004373 -0.000015 0.000246
99 -0.000062 0.000238 0.000000 -0.011814 -0.004373 -0.000015 0.000246
[Rear_Toe1_02]
97 379.707825 0.194073 0.000477 -0.000120 -29.960079 0.006869 379.707855
98 379.707825 0.194073 0.000477 -0.000099 -29.654705 0.006858 379.707855
99 379.707825 0.194073 0.000477 -0.000078 -29.349333 0.006848 379.707855
[Rear_Toe1_03]
97 500.129700 0.165701 0.000119 -0.000765 44.388027 0.006821 500.129761
98 500.129700 0.165701 0.000119 -0.000837 43.443077 0.006776 500.129761
99 500.129700 0.165701 0.000119 -0.000906 42.498112 0.006734 500.129761
[Rear_Toe2_02]
97 340.494507 0.000238 -0.000954 0.001175 -85.463478 0.001175 340.494507
98 340.494507 0.000238 -0.000954 0.001174 -85.771492 0.001174 340.494507
99 340.494507 0.000238 -0.000954 0.001174 -86.079483 0.001174 340.494507
[Rear_Toe2_03]
97 433.103577 0.000000 0.000238 179.986328 80.150543 179.986328 433.103546
98 433.103577 0.000000 0.000238 179.987350 79.349106 179.987350 433.103546
99 433.103577 0.000000 0.000238 179.991623 78.329468 179.991028 433.103546
[Rear_Toe3_02]
97 340.494141 -0.000358 -0.000477 0.001174 -86.241409 0.001174 340.494171
98 340.494141 -0.000358 -0.000477 0.001174 -86.676399 0.001174 340.494171
99 340.494141 -0.000358 -0.000477 0.001174 -87.165657 0.001174 340.494171
[Rear_Toe3_03]
97 433.103577 0.001431 -0.000238 -179.996246 78.015076 -179.992737 433.103546
98 433.103577 0.001431 -0.000238 -179.996780 76.751640 -179.993256 433.103546
99 433.103577 0.001431 -0.000238 -179.997269 75.301170 -179.993744 433.103546
[Back_Bone]
97 1312.175781 -701.934692 0.000954 -2.898736 -1.980561 -84.772713 1488.125488
98 1312.175781 -701.934692 0.000954 -2.880983 -2.071884 -84.822205 1488.125488
99 1312.175781 -701.934692 0.000954 -2.863149 -2.163192 -84.871712 1488.125488
[Head]
97 1406.159424 809.709290 0.001431 -2.820696 -1.951983 17.949738 1622.625488
98 1406.159424 809.709290 0.001431 -2.841359 -3.030807 17.856550 1622.625488
99 1406.159424 809.709290 0.001431 -2.860290 -4.109863 17.763615 1622.625488
[Motor_Bone]
97 1158.364380 -417.834747 0.000477 -2.642573 0.510648 -99.157288 1231.419434
98 1158.364380 -417.834747 0.000477 -2.643347 0.513038 -98.972084 1231.419434
99 1158.364380 -417.834747 0.000477 -2.643963 0.512989 -98.509224 1231.419434
[Ping_Mechanism]
97 1170.601074 -423.280243 15.340480 0.000103 -0.000053 82.120995 1244.872925
98 1170.238647 -423.542480 15.178759 0.000103 -0.000053 82.120995 1244.619263
99 1170.691895 -423.940674 15.396223 0.000103 -0.000053 82.120995 1245.183472
[BN_LookIK]
97 193.241119 1380.371704 -0.002861 0.000000 89.965736 -31.038179 1393.832153
98 193.241119 1380.371704 -0.002861 0.000000 89.965736 -31.038179 1393.832153
99 193.241119 1380.371704 -0.002861 0.000000 89.965736 -31.038179 1393.832153
[bottomMouth]
97 -435.092926 615.759399 -0.000954 -0.000022 0.000016 73.527184 753.966492
98 -435.092926 615.759399 -0.000954 -0.000022 0.000016 73.527184 753.966492
99 -435.092926 615.759399 -0.000954 -0.000022 0.000016 73.527184 753.966492
[L_Mouth01]
97 554.440979 7.658243 838.222046 150.204178 23.759130 109.605339 1005.027161
98 554.440979 7.658243 838.222046 150.204178 23.759130 109.605339 1005.027161
99 554.440979 7.658243 838.222046 150.204178 23.759130 109.605339 1005.027161
[L_mouthFront]
97 551.629089 934.514771 339.150421 0.000081 2.804060 79.119301 1136.941284
98 551.629089 934.514771 339.150421 0.000081 2.804060 79.119301 1136.941284
99 551.629089 934.514771 339.150421 0.000081 2.804060 79.119301 1136.941284
[mouthGun]
97 55.332661 1627.420898 0.000000 0.000023 0.000009 -11.038128 1628.361328
98 55.332661 1627.420898 0.000000 0.000023 0.000009 -11.038128 1628.361328
99 55.332661 1627.420898 0.000000 0.000023 0.000009 -11.038128 1628.361328
[R_Mouth01]
97 554.442383 7.659197 -838.223938 29.795891 -23.759109 109.605331 1005.029541
98 554.442383 7.659197 -838.223938 29.795891 -23.759109 109.605331 1005.029541
99 554.442383 7.659197 -838.223938 29.795891 -23.759109 109.605331 1005.029541
[R_mouthFront]
97 551.629089 934.514282 -339.151367 0.000029 -2.803930 79.119133 1136.941162
98 551.629089 934.514282 -339.151367 0.000029 -2.803930 79.119133 1136.941162
99 551.629089 934.514282 -339.151367 0.000029 -2.803930 79.119133 1136.941162
[TopMouth]
97 461.269867 -56.106091 -0.008583 -0.000059 -0.000268 92.025169 464.669525
98 461.269867 -56.106091 -0.008583 -0.000059 -0.000268 92.025169 464.669525
99 461.269867 -56.106091 -0.008583 -0.000059 -0.000268 92.025169 464.669525
[weapon_bone]
97 -987.239868 1448.372803 0.001431 0.000000 89.965736 -31.038221 1752.833740
98 -987.239868 1448.372803 0.001431 0.000000 89.965736 -31.038221 1752.833740
99 -987.239868 1448.372803 0.001431 0.000000 89.965736 -31.038221 1752.833740
